<?xml version="1.0" encoding="utf-8"?>
<!-- Generator: Adobe Illustrator 24.0.2, SVG Export Plug-In . SVG Version: 6.00 Build 0)  -->
<svg version="1.1" id="Capa_1" xmlns="http://www.w3.org/2000/svg" xmlns:xlink="http://www.w3.org/1999/xlink" x="0px" y="0px"
	 viewBox="0 0 24 24" style="enable-background:new 0 0 24 24;" xml:space="preserve">
<style type="text/css">
	.st0{fill:#3D3D3B;}
</style>
<path class="st0" d="M19.75,0.09v19.5c0,0.03-0.02,0.06-0.05,0.08l-0.63,0.36l-1.11,0.64l-0.5,0.29l0,0l-1.28,0.74l-0.46,0.27
	l-1.32,0.76l-0.49,0.29l0,0l-1.68,0.97c-0.03,0.02-0.06,0.02-0.09,0l-0.1-0.06l-1.62-0.94l-0.77-0.45l-1.09-0.63l-0.57-0.33
	l-1.22-0.7l-0.03-0.02l-0.72-0.41l-1.74-1c-0.03-0.02-0.05-0.05-0.05-0.08V9.57H4.3c0.02,0,0.03,0.01,0.05,0.01l1.68,0.97l1.96,1.13
	l0.27,0.15l1.34,0.77l0.05,0.03l0.56,0.32l1.13,0.65c0.08,0.05,0.05,0.18-0.05,0.18H9.74c-0.05,0-0.09,0.04-0.09,0.09v2.5
	c0,0.03,0.02,0.06,0.05,0.08l2.34,1.35h0.01v0.01l1.6-0.92l0.72-0.42c0.03-0.02,0.05-0.05,0.05-0.08v-3.39
	c0-0.03-0.02-0.06-0.05-0.08l-0.55-0.32l-1.34-0.77l-0.43-0.25l-0.99-0.57l-1.4-0.81L8.55,9.58l-0.5-0.29C8.02,9.28,8,9.25,8,9.21
	V3.84c0-0.05,0.04-0.09,0.09-0.09h8.01c0.05,0,0.09,0.04,0.09,0.09v5.73c0,0.07-0.08,0.11-0.14,0.08l-0.14-0.08L14.41,8.7
	l-1.88-1.09l0,0c-0.08-0.05-0.05-0.18,0.05-0.18h1.75c0.05,0,0.09-0.04,0.09-0.09V5.68c0-0.05-0.04-0.09-0.09-0.09H9.74
	c-0.05,0-0.09,0.04-0.09,0.09v2.4c0,0.03,0.02,0.06,0.05,0.08l2.08,1.2l0.27,0.16l0.1,0.06l2.27,1.31l1.66,0.96l0.07,0.04
	c0.03,0.02,0.05,0.05,0.05,0.08v5.5c0,0.03-0.02,0.06-0.05,0.08l-0.7,0.4l-1.04,0.6l-0.57,0.32l-1.75,1.01l-0.06-0.03l-1.75-1.01
	l-0.64-0.37l-1.45-0.84l-0.16-0.09C8,17.5,7.99,17.48,7.99,17.44v-3.76c0-0.03-0.02-0.06-0.05-0.08L6.22,12.6l-0.06-0.03
	c-0.06-0.03-0.14,0.01-0.14,0.08v5.75c0,0.03,0.02,0.06,0.05,0.08l1.4,0.8l0.52,0.3l0.49,0.28l1.18,0.68l0.64,0.37l1.76,1.01
	l0.06,0.03c0.03,0.02,0.06,0.02,0.09,0l1.77-1.02l0.45-0.25l1.3-0.75l0.48-0.28L17.31,19l0.61-0.35c0.03-0.02,0.05-0.05,0.05-0.08
	V1.85c0-0.05-0.04-0.09-0.09-0.09H15.2c-0.07,0-0.11-0.07-0.08-0.13l0.12-0.28l0.56-1.29C15.82,0.02,15.84,0,15.88,0h3.78
	C19.71-0.01,19.75,0.03,19.75,0.09z"/>
</svg>
